<svg width="24.000000" height="24.000000" viewBox="0 0 24 24" fill="none" xmlns="http://www.w3.org/2000/svg" xmlns:xlink="http://www.w3.org/1999/xlink">
	<desc>
			Created with Pixso.
	</desc>
	<defs>
		<clipPath id="clip32_230">
			<rect id="Search" width="24.000000" height="24.000000" fill="white" fill-opacity="0"/>
		</clipPath>
	</defs>
	<g clip-path="url(#clip32_230)">
		<path id="path" d="M11.91 7.72L11.89 7.75C11.48 7.75 11.14 7.42 11.14 7C11.14 6.57 11.48 6.25 11.89 6.25L11.91 6.27L11.91 7.72ZM8.03 16.28L8 16.29C7.68 16.01 7.65 15.54 7.93 15.23C8.21 14.91 8.67 14.88 8.99 15.16L8.99 15.19L8.03 16.28Z" fill="#000000" fill-opacity="0" fill-rule="nonzero"/>
		<path id="path" d="M11.89 7C14.71 7 17 9.23 17 12C17 14.76 14.71 17 11.89 17C10.59 17 9.4 16.51 8.5 15.72" stroke="#000000" stroke-opacity="1.000000" stroke-width="1.500000" stroke-linejoin="round" stroke-linecap="round"/>
		<path id="path" d="M12.02 2.72L12 2.75C11.58 2.75 11.25 2.42 11.25 2C11.25 1.57 11.58 1.25 12 1.25L12.02 1.27L12.02 2.72ZM4.23 4.59L4.23 4.56C4.52 4.26 4.99 4.25 5.29 4.54C5.6 4.83 5.6 5.29 5.31 5.6L5.29 5.6L4.23 4.59Z" fill="#000000" fill-opacity="0" fill-rule="nonzero"/>
		<path id="path" d="M12 2C17.52 2 22 6.47 22 12C22 17.52 17.52 22 12 22C9.29 22 6.83 20.92 5.03 19.17C3.16 17.35 2 14.81 2 12C2 9.31 3.05 6.87 4.77 5.08" stroke="#000000" stroke-opacity="1.000000" stroke-width="1.500000" stroke-linejoin="round" stroke-linecap="round"/>
		<path id="path" d="M4.28 5.62L4.25 5.62C3.95 5.33 3.94 4.86 4.23 4.56C4.52 4.26 4.99 4.25 5.29 4.54L5.29 4.57L4.28 5.62ZM5.57 19.67L5.57 19.69C5.28 20 4.81 20 4.51 19.71C4.21 19.42 4.2 18.95 4.49 18.65L4.52 18.65L5.57 19.67Z" fill="#000000" fill-opacity="0" fill-rule="nonzero"/>
		<path id="path" d="M4.77 5.08L12 12L5.03 19.17" stroke="#000000" stroke-opacity="1.000000" stroke-width="1.500000" stroke-linejoin="round" stroke-linecap="round"/>
	</g>
</svg>
